<svg xmlns="http://www.w3.org/2000/svg" viewBox="0 0 259.44 55.91"><defs><style>.cls-1{fill:none;}.cls-2{fill:#5f6368;}.cls-3{fill:#4285f4;}.cls-4{fill:#ea4335;}.cls-5{fill:#fbbc04;}.cls-6{fill:#34a853;}</style></defs><title>Google_NewsInitiative_Lockup_FullColor</title><g id="Layer_2" data-name="Layer 2"><g id="Google_Product_template" data-name="Google Product template"><rect class="cls-1" width="259.44" height="55.91"/><path class="cls-2" d="M100.64,36.9V20.44h2.57l8,12.81h.09l-.09-3.18V20.44h2.11V36.9h-2.2l-8.38-13.43h-.09l.09,3.18V36.9Z"/><path class="cls-2" d="M121.37,37.27a5.41,5.41,0,0,1-4.15-1.7,6,6,0,0,1-1.6-4.3A6.22,6.22,0,0,1,117.17,27a5.05,5.05,0,0,1,4-1.77,5.18,5.18,0,0,1,4,1.63,6.16,6.16,0,0,1,1.51,4.37l0,.39h-8.91a3.84,3.84,0,0,0,1.14,2.69,3.46,3.46,0,0,0,2.45,1,3,3,0,0,0,3.08-1.93l1.89.78a5.06,5.06,0,0,1-1.82,2.2A5.27,5.27,0,0,1,121.37,37.27Zm3-7.36a3,3,0,0,0-.88-1.84,3.19,3.19,0,0,0-2.43-.87,3,3,0,0,0-2,.73,3.8,3.8,0,0,0-1.19,2Z"/><path class="cls-2" d="M140.51,36.9h-2.17l-2.8-8.64-2.78,8.64h-2.14L127,25.64h2.21l2.51,8.5h0l2.78-8.5h2.19l2.78,8.5h0l2.49-8.5h2.16Z"/><path class="cls-2" d="M149.45,37.27a5,5,0,0,1-3.12-.92,5.49,5.49,0,0,1-1.81-2.3l1.89-.78a3.13,3.13,0,0,0,3.06,2.12,2.79,2.79,0,0,0,1.62-.44,1.34,1.34,0,0,0,.63-1.15c0-.74-.51-1.23-1.54-1.49l-2.27-.56a5.32,5.32,0,0,1-2-1,2.53,2.53,0,0,1-1-2.09,2.83,2.83,0,0,1,1.33-2.42,5.7,5.7,0,0,1,5.8-.26,3.91,3.91,0,0,1,1.68,1.95l-1.84.76a2.49,2.49,0,0,0-2.57-1.5,3,3,0,0,0-1.59.39,1.21,1.21,0,0,0-.65,1.06c0,.65.5,1.08,1.5,1.31l2.23.53a4.25,4.25,0,0,1,2.35,1.27,3.08,3.08,0,0,1,.76,2,3.13,3.13,0,0,1-1.25,2.53A4.89,4.89,0,0,1,149.45,37.27Z"/><path class="cls-2" d="M161.15,36.9V20.44h2.12V36.9Z"/><path class="cls-2" d="M168.19,25.64V27.2h.09a3.71,3.71,0,0,1,1.45-1.37,4.14,4.14,0,0,1,2.11-.56,4,4,0,0,1,3.2,1.29,5.06,5.06,0,0,1,1.1,3.44v6.9H174V30.33c0-2.09-.93-3.13-2.79-3.13a2.59,2.59,0,0,0-2.13,1.05,3.72,3.72,0,0,0-.83,2.42V36.9h-2.12V25.64Z"/><path class="cls-2" d="M180.64,22.81a1.5,1.5,0,0,1-2.55-1.06,1.4,1.4,0,0,1,.44-1.06,1.5,1.5,0,0,1,2.55,1.06A1.46,1.46,0,0,1,180.64,22.81Zm0,14.09h-2.11V25.64h2.11Z"/><path class="cls-2" d="M187.83,37.09a3.27,3.27,0,0,1-3.63-3.61V27.57h-2V25.64h2V22.18h2.11v3.46h2.76v1.93h-2.76v5.75c0,1.22.51,1.84,1.52,1.84a2.21,2.21,0,0,0,1-.19l.73,1.82A4.28,4.28,0,0,1,187.83,37.09Z"/><path class="cls-2" d="M193.09,22.81a1.5,1.5,0,1,1,0-2.12,1.43,1.43,0,0,1,.43,1.06A1.45,1.45,0,0,1,193.09,22.81Zm0,14.09H191V25.64h2.12Z"/><path class="cls-2" d="M199.1,37.27a4.46,4.46,0,0,1-3-1,3.44,3.44,0,0,1-1.2-2.74,3.38,3.38,0,0,1,1.42-2.89,5.83,5.83,0,0,1,3.52-1,6.08,6.08,0,0,1,3.06.69v-.32a2.53,2.53,0,0,0-.85-2,3.07,3.07,0,0,0-2.1-.75,3.15,3.15,0,0,0-1.66.44,2.29,2.29,0,0,0-1,1.19L195.33,28a4.41,4.41,0,0,1,1.54-1.87,4.92,4.92,0,0,1,3-.86,5.23,5.23,0,0,1,3.59,1.26,4.53,4.53,0,0,1,1.42,3.57v6.8h-2V35.34h-.09A4.16,4.16,0,0,1,199.1,37.27Zm.35-1.93a3.41,3.41,0,0,0,2.38-1,3,3,0,0,0,1.07-2.31,4.19,4.19,0,0,0-2.69-.73,3.56,3.56,0,0,0-2.33.66,2,2,0,0,0-.78,1.57,1.5,1.5,0,0,0,.72,1.31A2.84,2.84,0,0,0,199.45,35.34Z"/><path class="cls-2" d="M211.73,37.09a3.27,3.27,0,0,1-3.63-3.61V27.57h-2V25.64h2V22.18h2.11v3.46H213v1.93h-2.76v5.75c0,1.22.51,1.84,1.52,1.84a2.18,2.18,0,0,0,1-.19l.73,1.82A4.28,4.28,0,0,1,211.73,37.09Z"/><path class="cls-2" d="M217,22.81a1.49,1.49,0,0,1-2.55-1.06,1.43,1.43,0,0,1,.43-1.06,1.5,1.5,0,0,1,2.12,0,1.44,1.44,0,0,1,.44,1.06A1.46,1.46,0,0,1,217,22.81Zm0,14.09h-2.12V25.64H217Z"/><path class="cls-2" d="M222.89,36.9l-4.55-11.26h2.3L224,34.37H224l3.35-8.73h2.26L225,36.9Z"/><path class="cls-2" d="M235.53,37.27a5.41,5.41,0,0,1-4.15-1.7,6,6,0,0,1-1.6-4.3A6.22,6.22,0,0,1,231.33,27a5.05,5.05,0,0,1,4-1.77,5.18,5.18,0,0,1,4,1.63,6.16,6.16,0,0,1,1.51,4.37l0,.39h-8.9A3.84,3.84,0,0,0,233,34.35a3.46,3.46,0,0,0,2.45,1,3,3,0,0,0,3.09-1.93l1.88.78a5.1,5.1,0,0,1-1.81,2.2A5.3,5.3,0,0,1,235.53,37.27Zm3-7.36a3.08,3.08,0,0,0-.89-1.84,3.16,3.16,0,0,0-2.43-.87,3,3,0,0,0-2,.73,3.8,3.8,0,0,0-1.19,2Z"/><path class="cls-3" d="M28.1,37.27a9.32,9.32,0,1,1,0-18.64,8.88,8.88,0,0,1,6.38,2.57L32.69,23a6.46,6.46,0,0,0-4.59-1.82,6.78,6.78,0,0,0,0,13.55,6.22,6.22,0,0,0,4.7-1.87,5.29,5.29,0,0,0,1.39-3.2H28.1V27.11h8.56a7.65,7.65,0,0,1,.14,1.59,8.42,8.42,0,0,1-2.2,6A8.54,8.54,0,0,1,28.1,37.27Z"/><path class="cls-4" d="M50.05,31.27a5.91,5.91,0,1,1-5.91-6A5.87,5.87,0,0,1,50.05,31.27Zm-2.59,0a3.34,3.34,0,1,0-6.65,0,3.34,3.34,0,1,0,6.65,0Z"/><path class="cls-5" d="M63.31,31.27a5.92,5.92,0,1,1-5.91-6A5.87,5.87,0,0,1,63.31,31.27Zm-2.59,0a3.34,3.34,0,1,0-6.65,0,3.34,3.34,0,1,0,6.65,0Z"/><path class="cls-3" d="M76.24,25.63V36.41c0,4.43-2.62,6.25-5.71,6.25a5.73,5.73,0,0,1-5.32-3.55l2.3-1a3.33,3.33,0,0,0,3,2.13c2,0,3.21-1.22,3.21-3.52v-.86h-.1a4.09,4.09,0,0,1-3.15,1.36,6,6,0,0,1,0-12,4.15,4.15,0,0,1,3.15,1.34h.1v-1Zm-2.32,5.66a3.39,3.39,0,0,0-3.21-3.66,3.48,3.48,0,0,0-3.34,3.66,3.45,3.45,0,0,0,3.34,3.62A3.36,3.36,0,0,0,73.92,31.29Z"/><path class="cls-6" d="M80.86,19.27V36.91H78.22V19.27Z"/><path class="cls-4" d="M91.22,33.25l2,1.36a6,6,0,0,1-5,2.66,5.8,5.8,0,0,1-5.87-6c0-3.57,2.48-6,5.57-6a5.59,5.59,0,0,1,5.14,3.82l.27.68-8,3.32a3.06,3.06,0,0,0,2.91,1.82A3.42,3.42,0,0,0,91.22,33.25Zm-6.29-2.16,5.36-2.23a2.33,2.33,0,0,0-2.23-1.27A3.28,3.28,0,0,0,84.93,31.09Z"/></g></g></svg>