<?xml version="1.0" encoding="UTF-8"?>
<svg width="817px" height="234px" viewBox="0 0 817 234" version="1.1" xmlns="http://www.w3.org/2000/svg" xmlns:xlink="http://www.w3.org/1999/xlink">
    <!-- Generator: Sketch 48.2 (47327) - http://www.bohemiancoding.com/sketch -->
    <title>Page 1</title>
    <desc>Created with Sketch.</desc>
    <defs>
        <polygon id="path-1" points="0.6896 0.9439 47.65 0.9439 47.65 58.6709 0.6896 58.6709"></polygon>
        <polygon id="path-3" points="0.2821 0.718 1.2821 0.718 1.2821 233.9997 0.2821 233.9997"></polygon>
    </defs>
    <g id="Page-1" stroke="none" stroke-width="1" fill="none" fill-rule="evenodd">
        <g transform="translate(2.000000, -1.000000)">
            <path d="M307.1141,77.9714 C304.9261,77.9714 303.1311,78.6384 301.7301,79.9714 C300.3291,81.3044 299.2351,83.2004 298.4501,85.6614 C297.6631,88.1224 297.1171,91.1314 296.8081,94.6844 C296.5021,98.2404 296.3471,102.2734 296.3471,106.7834 C296.3471,111.1594 296.5021,115.0554 296.8081,118.4724 C297.1171,121.8924 297.6801,124.7964 298.5011,127.1884 C299.3211,129.5814 300.4491,131.4094 301.8851,132.6744 C303.3201,133.9394 305.1661,134.5714 307.4211,134.5714 C311.3851,134.5714 314.2401,132.5204 315.9831,128.4184 C317.7261,124.3174 318.5971,117.5504 318.5971,108.1174 C318.5971,102.9224 318.4271,98.4274 318.0851,94.6334 C317.7421,90.8394 317.1271,87.7124 316.2391,85.2514 C315.3501,82.7904 314.1711,80.9634 312.7021,79.7664 C311.2311,78.5714 309.3691,77.9714 307.1141,77.9714 M308.9601,69.9744 C313.2651,69.9744 317.1441,70.7944 320.5961,72.4354 C324.0481,74.0754 326.9881,76.4004 329.4151,79.4084 C331.8411,82.4164 333.7041,86.1074 335.0031,90.4814 C336.3011,94.8574 336.9511,99.7434 336.9511,105.1444 C336.9511,110.8854 336.2671,116.0804 334.9001,120.7294 C333.5321,125.3774 331.5841,129.3084 329.0551,132.5204 C326.5261,135.7344 323.4511,138.2104 319.8281,139.9534 C316.2041,141.6974 312.1381,142.5694 307.6261,142.5694 C303.1151,142.5694 299.0651,141.7824 295.4761,140.2094 C291.8871,138.6384 288.8451,136.3314 286.3501,133.2884 C283.8541,130.2474 281.9571,126.5574 280.6601,122.2154 C279.3601,117.8744 278.7121,112.9364 278.7121,107.3994 C278.7121,101.5214 279.3941,96.2744 280.7621,91.6594 C282.1301,87.0464 284.1291,83.1334 286.7601,79.9194 C289.3911,76.7074 292.5691,74.2474 296.2971,72.5374 C300.0211,70.8294 304.2431,69.9744 308.9601,69.9744" id="Fill-1" fill="#FFFFFF"></path>
            <path d="M365.9686,134.4684 C370.8216,134.4684 374.4936,132.7094 376.9906,129.1874 C379.4856,125.6674 380.7336,120.5924 380.7336,113.9614 C380.7336,100.6314 376.1866,93.9674 367.0966,93.9674 C366.7526,93.9674 366.2916,93.9854 365.7116,94.0184 C365.1296,94.0534 364.5666,94.1384 364.0206,94.2754 L364.0206,134.4684 L365.9686,134.4684 Z M364.0206,154.5654 L372.7356,157.4364 L372.7356,163.6904 L340.6426,163.6904 L340.6426,157.4364 L347.6146,154.5654 L347.6146,95.4034 L340.6426,93.3524 L340.6426,87.0974 L364.0206,83.7134 L364.0206,89.3534 C366.0016,88.3964 367.7446,87.5944 369.2496,86.9434 C370.7516,86.2944 372.0856,85.7644 373.2486,85.3544 C374.4096,84.9444 375.4686,84.6544 376.4266,84.4834 C377.3836,84.3134 378.3396,84.2264 379.2976,84.2264 C382.0996,84.2264 384.6806,84.8594 387.0386,86.1234 C389.3976,87.3894 391.4126,89.1834 393.0886,91.5064 C394.7626,93.8314 396.0616,96.6324 396.9856,99.9134 C397.9076,103.1964 398.3686,106.8194 398.3686,110.7824 C398.3686,115.2934 397.6846,119.4644 396.3186,123.2914 C394.9496,127.1204 393.0526,130.4174 390.6276,133.1864 C388.2006,135.9544 385.3116,138.1084 381.9636,139.6464 C378.6146,141.1844 374.9906,141.9524 371.0956,141.9524 C369.7266,141.9524 368.5656,141.8844 367.6086,141.7474 C366.6506,141.6114 365.4556,141.3024 364.0206,140.8244 L364.0206,154.5654 Z" id="Fill-3" fill="#FFFFFF"></path>
            <path d="M433.742,105.6559 L433.742,102.5799 C433.742,98.2739 433.245,95.1809 432.255,93.3019 C431.263,91.4219 429.605,90.4809 427.282,90.4809 C424.616,90.4809 422.65,91.6779 421.387,94.0699 C420.12,96.4639 419.489,100.2219 419.489,105.3479 L419.489,107.5019 L433.742,105.6559 Z M419.489,113.3449 C420.036,119.4979 421.899,124.1809 425.077,127.3929 C428.256,130.6069 432.614,132.2129 438.15,132.2129 C439.517,132.2129 440.884,132.1449 442.252,132.0069 C443.619,131.8709 445.464,131.5969 447.789,131.1869 L448.917,137.8509 L446.763,138.3649 C443.345,139.1839 440.612,139.8179 438.561,140.2609 C436.511,140.7069 434.783,141.0639 433.383,141.3379 C431.981,141.6109 430.784,141.7819 429.795,141.8499 C428.803,141.9179 427.657,141.9529 426.359,141.9529 C422.735,141.9529 419.489,141.2869 416.618,139.9539 C413.748,138.6209 411.286,136.7749 409.236,134.4169 C407.185,132.0579 405.612,129.2219 404.519,125.9069 C403.426,122.5919 402.879,118.9519 402.879,114.9869 C402.879,110.3399 403.494,106.1179 404.724,102.3239 C405.955,98.5299 407.714,95.3009 410.006,92.6339 C412.295,89.9679 415.045,87.9009 418.259,86.4309 C421.471,84.9629 425.026,84.2259 428.923,84.2259 C431.93,84.2259 434.716,84.7059 437.279,85.6619 C439.842,86.6199 442.047,88.0899 443.892,90.0709 C445.738,92.0539 447.189,94.5489 448.251,97.5549 C449.309,100.5639 449.839,104.1189 449.839,108.2189 L449.839,113.3449 L419.489,113.3449 Z" id="Fill-5" fill="#FFFFFF"></path>
            <path d="M477.8309,131.6999 L483.6769,134.5709 L483.6769,140.8249 L454.4539,140.8249 L454.4539,134.5709 L461.3229,131.6999 L461.3229,95.4029 L454.4539,93.3519 L454.4539,87.0969 L477.8309,83.7139 L477.8309,89.8659 C480.6329,88.5679 482.8709,87.5249 484.5459,86.7379 C486.2199,85.9539 487.6049,85.3889 488.6989,85.0469 C489.7929,84.7059 490.6999,84.4829 491.4159,84.3809 C492.1339,84.2779 492.9359,84.2259 493.8249,84.2259 C495.8769,84.2259 497.7729,84.6029 499.5159,85.3539 C501.2599,86.1069 502.7629,87.2179 504.0279,88.6859 C505.2919,90.1579 506.2999,91.9679 507.0519,94.1209 C507.8049,96.2739 508.1819,98.7859 508.1819,101.6569 L508.1819,131.6999 L515.0519,134.5709 L515.0519,140.8249 L485.8289,140.8249 L485.8289,134.5709 L491.5689,131.6999 L491.5689,106.6809 C491.5689,102.2389 490.9029,99.0949 489.5699,97.2489 C488.2369,95.4029 485.9979,94.4799 482.8549,94.4799 C481.9649,94.4799 481.1449,94.5149 480.3939,94.5819 C479.6409,94.6509 478.7869,94.7879 477.8309,94.9929 L477.8309,131.6999 Z" id="Fill-7" fill="#FFFFFF"></path>
            <path d="M545.0907,101.9645 C552.6087,101.9645 556.3687,97.8625 556.3687,89.6605 C556.3687,88.0205 556.1997,86.4995 555.8597,85.0985 C555.5147,83.6975 554.9677,82.4495 554.2167,81.3565 C553.4627,80.2635 552.4747,79.4075 551.2447,78.7915 C550.0117,78.1765 548.5107,77.8685 546.7317,77.8685 L542.7327,77.8685 L542.7327,101.9645 L545.0907,101.9645 Z M542.7327,131.6995 L549.6027,134.5705 L549.6027,140.8245 L518.7397,140.8245 L518.7397,134.5705 L525.6107,131.6995 L525.6107,80.2275 L518.7397,77.3575 L518.7397,71.1025 L551.2447,71.1025 C554.7297,71.1025 557.7547,71.2905 560.3177,71.6665 C562.8827,72.0425 565.0507,72.7425 566.8267,73.7685 C569.6987,75.3415 571.7327,77.3575 572.9307,79.8175 C574.1257,82.2775 574.7237,85.0465 574.7237,88.1225 C574.7237,96.8735 570.0057,102.4435 560.5727,104.8355 L577.4917,131.6995 L583.2337,134.5705 L583.2337,140.8245 L562.4197,140.8245 L544.0667,108.7325 L542.7327,108.7325 L542.7327,131.6995 Z" id="Fill-9" fill="#FFFFFF"></path>
            <path d="M613.5839,105.6559 L613.5839,102.5799 C613.5839,98.2739 613.0859,95.1809 612.0959,93.3019 C611.1049,91.4219 609.4459,90.4809 607.1229,90.4809 C604.4579,90.4809 602.4919,91.6779 601.2279,94.0699 C599.9629,96.4639 599.3299,100.2219 599.3299,105.3479 L599.3299,107.5019 L613.5839,105.6559 Z M599.3299,113.3449 C599.8759,119.4979 601.7409,124.1809 604.9189,127.3929 C608.0979,130.6069 612.4539,132.2129 617.9909,132.2129 C619.3579,132.2129 620.7249,132.1449 622.0929,132.0069 C623.4599,131.8709 625.3059,131.5969 627.6309,131.1869 L628.7579,137.8509 L626.6049,138.3649 C623.1869,139.1839 620.4519,139.8179 618.4009,140.2609 C616.3509,140.7069 614.6239,141.0639 613.2239,141.3379 C611.8219,141.6109 610.6259,141.7819 609.6359,141.8499 C608.6439,141.9179 607.4989,141.9529 606.1999,141.9529 C602.5759,141.9529 599.3299,141.2869 596.4599,139.9539 C593.5879,138.6209 591.1279,136.7749 589.0769,134.4169 C587.0259,132.0579 585.4529,129.2219 584.3609,125.9069 C583.2659,122.5919 582.7199,118.9519 582.7199,114.9869 C582.7199,110.3399 583.3349,106.1179 584.5649,102.3239 C585.7969,98.5299 587.5549,95.3009 589.8469,92.6339 C592.1349,89.9679 594.8869,87.9009 598.1009,86.4309 C601.3129,84.9629 604.8679,84.2259 608.7649,84.2259 C611.7709,84.2259 614.5569,84.7059 617.1199,85.6619 C619.6849,86.6199 621.8879,88.0899 623.7339,90.0709 C625.5799,92.0539 627.0309,94.5489 628.0919,97.5549 C629.1499,100.5639 629.6809,104.1189 629.6809,108.2189 L629.6809,113.3449 L599.3299,113.3449 Z" id="Fill-11" fill="#FFFFFF"></path>
            <path d="M641.1639,93.3522 L634.9089,93.3522 L634.9089,84.8412 L641.1639,84.8412 L641.1639,81.1502 C641.1639,78.0742 641.7959,75.4252 643.0609,73.2042 C644.3249,70.9832 645.9319,69.1542 647.8789,67.7182 C649.8279,66.2832 651.9979,65.2412 654.3919,64.5912 C656.7829,63.9422 659.1069,63.6172 661.3629,63.6172 C662.7989,63.6172 664.5929,63.7372 666.7469,63.9762 C668.8989,64.2152 672.0259,64.6422 676.1279,65.2572 L676.1279,77.3572 L665.1569,77.3572 L662.1849,69.4612 C660.6099,69.5992 659.4819,70.2302 658.7989,71.3582 C658.1149,72.4862 657.7739,74.4862 657.7739,77.3572 L657.7739,84.8412 L666.2849,84.8412 L666.2849,93.3522 L657.7739,93.3522 L657.7739,131.7002 L666.2849,134.5712 L666.2849,140.8252 L634.9089,140.8252 L634.9089,134.5712 L641.1639,131.7002 L641.1639,93.3522 Z" id="Fill-13" fill="#FFFFFF"></path>
            <path d="M689.4559,63.6169 C693.0789,63.6169 695.6239,64.1649 697.0959,65.2579 C698.5639,66.3519 699.2999,68.2659 699.2999,70.9999 C699.2999,73.7339 698.5639,75.6139 697.0959,76.6389 C695.6239,77.6649 693.0789,78.1769 689.4559,78.1769 C685.8339,78.1769 683.3209,77.6649 681.9199,76.6389 C680.5179,75.6139 679.8189,73.7339 679.8189,70.9999 C679.8189,68.2659 680.5179,66.3519 681.9199,65.2579 C683.3209,64.1649 685.8339,63.6169 689.4559,63.6169 Z M681.5609,95.4029 L674.6909,93.3519 L674.6909,87.0969 L698.0689,83.7139 L698.0689,131.6999 L704.9389,134.5709 L704.9389,140.8249 L674.6909,140.8249 L674.6909,134.5709 L681.5609,131.6999 L681.5609,95.4029 Z" id="Fill-15" fill="#FFFFFF"></path>
            <path d="M730.9833,131.6999 L736.8293,134.5709 L736.8293,140.8249 L707.6063,140.8249 L707.6063,134.5709 L714.4763,131.6999 L714.4763,95.4029 L707.6063,93.3519 L707.6063,87.0969 L730.9833,83.7139 L730.9833,89.8659 C733.7863,88.5679 736.0243,87.5249 737.7003,86.7379 C739.3743,85.9539 740.7573,85.3889 741.8533,85.0469 C742.9453,84.7059 743.8523,84.4829 744.5703,84.3809 C745.2883,84.2779 746.0903,84.2259 746.9793,84.2259 C749.0293,84.2259 750.9263,84.6029 752.6703,85.3539 C754.4143,86.1069 755.9153,87.2179 757.1803,88.6859 C758.4453,90.1579 759.4543,91.9679 760.2063,94.1209 C760.9573,96.2739 761.3343,98.7859 761.3343,101.6569 L761.3343,131.6999 L768.2043,134.5709 L768.2043,140.8249 L738.9813,140.8249 L738.9813,134.5709 L744.7233,131.6999 L744.7233,106.6809 C744.7233,102.2389 744.0563,99.0949 742.7243,97.2489 C741.3913,95.4029 739.1513,94.4799 736.0073,94.4799 C735.1193,94.4799 734.2993,94.5149 733.5463,94.5819 C732.7953,94.6509 731.9403,94.7879 730.9833,94.9929 L730.9833,131.6999 Z" id="Fill-17" fill="#FFFFFF"></path>
            <g id="Group-21" transform="translate(767.000000, 83.282000)">
                <mask id="mask-2" fill="white">
                    <use xlink:href="#path-1"></use>
                </mask>
                <g id="Clip-20"></g>
                <path d="M31.5526,22.3739 L31.5526,19.2979 C31.5526,14.9919 31.0556,11.8989 30.0656,10.0199 C29.0736,8.1399 27.4156,7.1989 25.0926,7.1989 C22.4276,7.1989 20.4606,8.3959 19.1976,10.7879 C17.9316,13.1819 17.2996,16.9399 17.2996,22.0659 L17.2996,24.2199 L31.5526,22.3739 Z M17.2996,30.0629 C17.8456,36.2159 19.7096,40.8989 22.8886,44.1109 C26.0676,47.3249 30.4236,48.9309 35.9606,48.9309 C37.3276,48.9309 38.6936,48.8629 40.0626,48.7249 C41.4296,48.5889 43.2756,48.3149 45.5996,47.9049 L46.7276,54.5689 L44.5736,55.0829 C41.1566,55.9019 38.4216,56.5359 36.3706,56.9789 C34.3206,57.4249 32.5936,57.7819 31.1936,58.0559 C29.7916,58.3289 28.5946,58.4999 27.6056,58.5679 C26.6136,58.6359 25.4676,58.6709 24.1696,58.6709 C20.5456,58.6709 17.2996,58.0049 14.4296,56.6719 C11.5576,55.3389 9.0966,53.4929 7.0466,51.1349 C4.9956,48.7759 3.4216,45.9399 2.3296,42.6249 C1.2356,39.3099 0.6896,35.6699 0.6896,31.7049 C0.6896,27.0579 1.3036,22.8359 2.5346,19.0419 C3.7666,15.2479 5.5246,12.0189 7.8166,9.3519 C10.1046,6.6859 12.8556,4.6189 16.0706,3.1489 C19.2816,1.6809 22.8366,0.9439 26.7336,0.9439 C29.7406,0.9439 32.5266,1.4239 35.0896,2.3799 C37.6536,3.3379 39.8576,4.8079 41.7026,6.7889 C43.5486,8.7719 45.0006,11.2669 46.0616,14.2729 C47.1196,17.2819 47.6506,20.8369 47.6506,24.9369 L47.6506,30.0629 L17.2996,30.0629 Z" id="Fill-19" fill="#FFFFFF" mask="url(#mask-2)"></path>
            </g>
            <g id="Group-24" transform="translate(233.000000, 0.282000)">
                <mask id="mask-4" fill="white">
                    <use xlink:href="#path-3"></use>
                </mask>
                <g id="Clip-23"></g>
                <path d="M0.2821,0.7177 L0.2821,233.9997" id="Stroke-22" stroke="#FFFFFF" stroke-width="1.632" mask="url(#mask-4)"></path>
            </g>
            <polygon id="Stroke-25" stroke="#FFFFFF" stroke-width="4" stroke-linecap="round" stroke-linejoin="round" points="46.6561 94.3132 46.6561 47.6562 93.3131 47.6562"></polygon>
            <polygon id="Stroke-27" stroke="#FFFFFF" stroke-width="4" stroke-linecap="round" stroke-linejoin="round" points="46.6561 94.3132 46.6561 47.6562 0.0001 94.3132"></polygon>
            <polygon id="Stroke-29" stroke="#FFFFFF" stroke-width="4" stroke-linecap="round" stroke-linejoin="round" points="139.9696 94.3132 139.9696 47.6562 93.3136 47.6562"></polygon>
            <polygon id="Stroke-31" stroke="#FFFFFF" stroke-width="4" stroke-linecap="round" stroke-linejoin="round" points="46.6561 94.3132 93.3131 47.6562 139.9691 94.3132"></polygon>
            <polygon id="Stroke-33" stroke="#FFFFFF" stroke-width="4" stroke-linecap="round" stroke-linejoin="round" points="139.9696 94.3132 139.9696 47.6562 186.6256 94.3132"></polygon>
            <polygon id="Stroke-35" stroke="#FFFFFF" stroke-width="4" stroke-linecap="round" stroke-linejoin="round" points="46.6561 94.3132 0.0001 94.3132 93.3131 187.6262"></polygon>
            <polygon id="Stroke-37" stroke="#FFFFFF" stroke-width="4" stroke-linecap="round" stroke-linejoin="round" points="139.9696 94.3132 46.6566 94.3132 93.3136 187.6262"></polygon>
            <polygon id="Stroke-39" stroke="#FFFFFF" stroke-width="4" stroke-linecap="round" stroke-linejoin="round" points="186.6258 94.3132 139.9698 94.3132 93.3138 187.6262"></polygon>
        </g>
    </g>
</svg>