<svg width="187.85" height="187.86" enable-background="new 0 0 185 226" version="1.1" viewBox="0 0 187.85 187.86" xml:space="preserve" xmlns="http://www.w3.org/2000/svg">
<g transform="translate(1.4226 1.172)">
	<path d="m60.318 81.78 10.969 10.969 4.954-4.953c0.784-2.586 2.193-5.023 4.238-7.067 2.045-2.045 4.481-3.454 7.068-4.239l4.953-4.953-10.97-10.972c-4.975 1.695-9.434 4.503-13.073 8.142-3.638 3.64-6.445 8.099-8.139 13.073z" fill="#0099e6"/>
	<path d="m57.206 78.668c3.856-9.658 11.555-17.357 21.213-21.214l-7.132-7.131-21.213 21.213z" fill="#0099e6"/><g fill="#046">


	<path d="m46.309 67.772 3.765 3.764 21.213-21.213-3.765-3.765c-4.48 2.428-8.57 5.487-12.147 9.063-3.577 3.58-6.637 7.67-9.066 12.151z"/>
	<path d="m34.277 55.739 9.103 9.103c5.031-8.839 12.374-16.182 21.212-21.214l-9.101-9.103c-4.265 2.717-8.222 5.873-11.782 9.434s-6.715 7.518-9.432 11.78z"/>
	<path d="m52.596 31.631-2.522-2.522-21.214 21.213 2.522 2.522c5.531-8.452 12.761-15.683 21.214-21.213z"/>


	<path d="m92.534 40.25c0.04-1e-3 0.082-4e-3 0.124-9e-3 -0.053 5e-3 -0.106 7e-3 -0.16 7e-3h-0.084c0.028 2e-3 0.058 2e-3 0.086 2e-3h0.034z"/>
	<path d="m71.287 50.323 7.132 7.131c4.355-1.738 9.104-2.705 14.082-2.705 4.976 0 9.724 0.967 14.082 2.706l7.131-7.133-8.518-8.518c-4.055-1.007-8.293-1.552-12.662-1.555-0.022 1e-3 -0.045 2e-3 -0.066 2e-3 -0.035 0-0.069-1e-3 -0.102-4e-3 -4.332 0.011-8.534 0.555-12.558 1.553z"/>
	<path d="m92.243 40.233c0.038 7e-3 0.079 0.012 0.123 0.015h0.048c-0.058-2e-3 -0.115-7e-3 -0.171-0.015z"/>
	<path d="m93.461 40c0.164-0.087 0.32-0.198 0.451-0.338l-2e-3 -1e-3c-0.135 0.136-0.287 0.249-0.449 0.339z"/>
	<path d="m81.53 60.565 10.97 10.971 10.958-10.96c-3.438-1.174-7.121-1.823-10.958-1.83-3.842 1e-3 -7.529 0.647-10.97 1.819z"/>
	<path d="m84.83 36.779c2.509-0.341 5.065-0.532 7.668-0.532v1e-3c0.022 0 0.044 0 0.065 1e-3 2.583 3e-3 5.121 0.195 7.611 0.533l-7.674-7.674z"/></g><g fill="#45b0e6">


	<path d="m153.62 52.847 2.523-2.523-21.213-21.214-2.523 2.523c8.453 5.529 15.684 12.761 21.213 21.214z"/>
	<path d="m117.48 46.561-3.762 3.762 21.213 21.215 3.764-3.763c-2.43-4.481-5.49-8.571-9.068-12.149-3.577-3.577-7.667-6.638-12.147-9.065z"/>
	<path d="m141.29 43.959c-3.561-3.56-7.518-6.716-11.779-9.433l-9.104 9.103c8.838 5.032 16.182 12.376 21.213 21.215l9.104-9.103c-2.717-4.264-5.875-8.221-9.434-11.782z"/></g><g fill="#3382aa">


	<path d="m103.46 60.576-10.959 10.96 4.953 4.954c2.586 0.785 5.023 2.194 7.068 4.238 2.043 2.044 3.453 4.48 4.238 7.066l4.953 4.954 10.959-10.958c-3.396-9.95-11.261-17.816-21.212-21.214z"/>
	<path d="m113.71 50.322-7.131 7.133c9.656 3.856 17.355 11.556 21.211 21.214l7.131-7.132z"/>


	<path d="m60.318 81.78c-1.172 3.442-1.816 7.128-1.816 10.971 0 3.841 0.645 7.525 1.817 10.967l10.968-10.969z"/>
	<path d="m57.206 106.83c-1.739-4.355-2.705-9.103-2.705-14.079 0-4.978 0.967-9.727 2.705-14.083l-7.132-7.132-8.521 8.521c-1.009 4.064-1.553 8.313-1.553 12.693 0 4.379 0.544 8.627 1.553 12.691l8.521 8.521z"/>
	<path d="m28.86 92.749 7.672 7.671c-0.342-2.51-0.533-5.066-0.533-7.67s0.191-5.162 0.533-7.672z"/></g><g fill="#45b0e6">


	<path d="m127.79 78.67c1.738 4.355 2.705 9.103 2.705 14.078 0 4.977-0.967 9.725-2.705 14.08l7.133 7.134 8.518-8.518c1.01-4.065 1.555-8.314 1.555-12.694s-0.545-8.63-1.553-12.695l-8.52-8.518z"/>
	<path d="m156.14 92.749-7.672-7.672c0.342 2.51 0.533 5.068 0.533 7.673 0 2.604-0.193 5.161-0.533 7.672z"/>
	<path d="m124.67 103.71c1.174-3.438 1.824-7.121 1.83-10.958-6e-3 -3.836-0.656-7.519-1.828-10.956l-10.959 10.957z"/>


	</g><path d="m134.93 113.96-7.133-7.134c-3.855 9.657-11.555 17.356-21.213 21.213l7.133 7.134z" fill="#046"/>
	<path d="m124.67 103.71-10.957-10.957-4.955 4.955c-0.785 2.586-2.193 5.021-4.238 7.065-2.043 2.044-4.479 3.453-7.064 4.238l-4.955 4.955 10.957 10.956c9.952-3.395 17.815-11.26 21.212-21.212z" fill="#046"/>


	<path d="m71.288 135.18 7.133-7.133c-9.659-3.854-17.358-11.554-21.215-21.211l-7.131 7.131z" fill="#45b0e6"/>
	<path d="m81.533 124.93 10.967-10.968-4.953-4.954c-2.587-0.785-5.024-2.194-7.068-4.238s-3.454-4.481-4.238-7.068l-4.953-4.952-10.969 10.969c1.694 4.973 4.5 9.431 8.138 13.072 3.641 3.638 8.1 6.444 13.076 8.139z" fill="#45b0e6"/><g fill="#046">


	<path d="m67.526 138.94 3.762-3.763-21.213-21.213-3.764 3.763c2.429 4.48 5.49 8.568 9.066 12.146 3.579 3.576 7.667 6.638 12.149 9.067z"/>
	<path d="m55.492 150.97 9.103-9.103c-8.838-5.032-16.182-12.376-21.214-21.213l-9.103 9.102c5.433 8.529 12.684 15.78 21.214 21.214z"/>
	<path d="m31.383 132.65-2.523 2.523 21.215 21.213 2.522-2.522c-8.452-5.53-15.683-12.761-21.214-21.214z"/></g><g fill="#0099e6">


	<path d="m92.5 113.96-10.968 10.968c3.439 1.171 7.123 1.816 10.963 1.817h3e-3c3.837-7e-3 7.521-0.655 10.958-1.829z"/>
	<path d="m105.2 143.69 8.518-8.519-7.133-7.134c-4.355 1.739-9.104 2.706-14.082 2.707-0.02-1e-3 -0.038-2e-3 -0.058-3e-3 -4.955-7e-3 -9.683-0.972-14.021-2.703l-7.133 7.133 8.52 8.52c4.064 1.01 8.313 1.554 12.692 1.555 4.381-1e-3 8.631-0.546 12.697-1.556z"/>
	<path d="m100.17 148.72c-2.512 0.341-5.07 0.533-7.674 0.533s-5.161-0.192-7.672-0.533l7.673 7.673z"/>


	<path d="m138.69 117.72-3.762-3.762-21.213 21.213 3.762 3.762c4.48-2.429 8.568-5.49 12.146-9.066 3.578-3.578 6.639-7.667 9.067-12.147z"/>
	<path d="m132.4 153.86 2.523 2.524 21.215-21.214-2.525-2.524c-5.529 8.453-12.76 15.684-21.213 21.214z"/>
	<path d="m150.72 129.76-9.102-9.103c-5.033 8.838-12.377 16.181-21.215 21.213l9.104 9.104c4.264-2.717 8.221-5.873 11.781-9.434 3.559-3.559 6.715-7.516 9.432-11.78z"/>


	</g><path d="m149.07 113.96 6.584 6.584c2.535-5.75 4.305-11.909 5.188-18.355z" fill="#45b0e6"/>
	<path d="m164.95 101.56c-0.938 7.779-3.092 15.18-6.277 22.009l4.537 4.536 14.143-14.143z" fill="#45b0e6"/><g fill="#3382aa">


	<path d="m164.95 83.937 12.402-12.4-14.143-14.143-4.535 4.536c3.186 6.827 5.339 14.228 6.276 22.007z"/>
	<path d="m155.65 64.951-6.584 6.585 11.771 11.77c-0.882-6.447-2.651-12.605-5.187-18.355z"/>


	<path d="m113.71 36.181 6.586-6.586c-5.75-2.535-11.91-4.305-18.357-5.187z"/>
	<path d="m123.32 26.573 4.535-4.535-14.142-14.142-12.402 12.401c7.781 0.937 15.181 3.091 22.009 6.276z"/>


	</g><path d="m113.71 149.32-11.771 11.771c6.447-0.882 12.605-2.652 18.355-5.188z" fill="#046"/>
	<path d="m101.31 165.2 12.402 12.401 14.143-14.142-4.535-4.536c-6.829 3.186-14.231 5.341-22.01 6.277z" fill="#046"/><g fill="#069">


	<path d="m71.288 36.181 11.771-11.773c-6.447 0.883-12.607 2.652-18.357 5.187z"/>
	<path d="m83.688 20.297-12.4-12.401-14.143 14.142 4.534 4.534c6.828-3.184 14.23-5.339 22.009-6.275z"/>


	<path d="m35.932 71.536-6.586-6.586c-2.535 5.751-4.306 11.91-5.188 18.358z"/>
	<path d="m26.324 61.928-4.534-4.534-14.144 14.142 12.401 12.398c0.937-7.778 3.091-15.179 6.277-22.006z"/>


	</g><path d="m35.932 113.96-11.774-11.774c0.883 6.447 2.653 12.607 5.189 18.358z" fill="#45b0e6"/>
	<path d="m20.047 101.56-12.4 12.401 14.143 14.143 4.535-4.535c-3.186-6.829-5.34-14.23-6.278-22.009z" fill="#45b0e6"/>


	<path d="m71.287 149.32-6.584 6.584c5.751 2.535 11.91 4.306 18.355 5.188z" fill="#3382aa"/>
	<path d="m61.68 158.92-4.535 4.535 14.143 14.141 12.4-12.4c-7.779-0.937-15.18-3.091-22.008-6.276z" fill="#3382aa"/>
</g>
<rect transform="rotate(44.992)" x="187.83" y="-64.977" width="9.9999" height="10.002" fill="#0099e6" stroke-width=".99999"/>
<rect transform="rotate(45.004)" x="187.83" y="54.997" width="10.002" height="10.001" fill="#069" stroke-width="1.0001"/>
<rect transform="rotate(44.996)" x="67.835" y="-64.997" width="10.001" height="10.002" fill="#046" stroke-width="1.0001"/><g stroke-width=".99999">
<rect transform="rotate(225)" x="-77.826" y="-64.999" width="9.9989" height="9.9999" fill="#0099e6"/>
<rect transform="rotate(45.008)" x="37.825" y="-5.0063" width="9.9999" height="9.9989" fill="#45b0e6"/>
<rect transform="rotate(45.008)" x="217.82" y="-5.0325" width="9.9999" height="9.9989" fill="#3382aa"/>
<rect transform="rotate(45.008)" x="127.81" y="-95.018" width="9.9999" height="9.9989" fill="#046"/>
</g><rect transform="rotate(45.004)" x="127.83" y="85" width="10.002" height="10.001" fill="#0099e6" stroke-width="1.0001"/>

</svg>
